<?xml version="1.0" encoding="utf-8"?>
<!-- Generator: Adobe Illustrator 23.0.0, SVG Export Plug-In . SVG Version: 6.00 Build 0)  -->
<svg version="1.1" id="Capa_1" xmlns="http://www.w3.org/2000/svg" xmlns:xlink="http://www.w3.org/1999/xlink" x="0px" y="0px"
	 viewBox="0 0 24 32" style="enable-background:new 0 0 24 32;" xml:space="preserve">
<style type="text/css">
	.st0{fill:#FEFEFE;}
	.st1{fill:#8C8C8C;}
	.st2{fill:#757575;}
	.st3{fill:#010101;}
	.st4{fill:#030303;}
</style>
<path d="M22.84,11.64c-0.01,2.43-0.74,4.69-2.15,6.74c-1.71,2.48-3.24,5.08-4.84,7.62c-1.14,1.81-2.23,3.66-3.34,5.5
	c-0.4,0.66-1.15,0.67-1.55,0.01c-1.03-1.7-2.04-3.43-3.11-5.1c-1.74-2.73-3.38-5.52-5.2-8.2c-1.01-1.49-1.66-3.12-1.9-4.91
	C0.3,9.96,1.06,6.94,3.11,4.28c1.18-1.53,2.65-2.69,4.42-3.43c1.69-0.71,3.45-0.98,5.28-0.8c5.08,0.5,8.87,4.43,9.8,9.1
	C22.76,9.95,22.84,10.75,22.84,11.64z"/>
<path class="st0" d="M17.39,8.08c-0.05,0.06-0.04,0.14-0.04,0.21c0,0.4,0,0.81-0.01,1.21c-0.01,0.17,0.04,0.24,0.22,0.24
	c0.41,0,0.41,0.01,0.41,0.43c0,1.53,0,3.06,0,4.59c0,0.18-0.04,0.24-0.23,0.24c-4.03-0.01-8.06-0.01-12.1,0
	c-0.19,0-0.23-0.06-0.23-0.24c0.01-1.6,0.01-3.21,0-4.81c0-0.19,0.06-0.22,0.23-0.22c0.59,0.01,0.59,0,0.59-0.61
	c0-0.32-0.01-0.64-0.01-0.97C6.09,8.01,6.06,7.85,6.17,7.67C6.25,7.6,6.22,7.51,6.22,7.42c0-0.97,0.01-1.94,0-2.9
	c0-0.2,0.06-0.24,0.24-0.24c3.55,0,7.09,0,10.64,0c0.2,0,0.25,0.06,0.25,0.26c-0.01,0.97,0,1.93,0,2.9c0,0.08-0.03,0.17,0.03,0.24
	C17.48,7.81,17.47,7.94,17.39,8.08z"/>
<path class="st0" d="M17.92,15.9c-0.12,0.32-0.24,0.64-0.36,0.95c-0.04,0.11-0.14,0.09-0.23,0.09c-1.04,0-2.07,0-3.11,0
	c-1.19,0-2.38-0.01-3.57,0.02c-1.47,0.03-2.94,0-4.41,0.02c-0.08,0-0.15,0.01-0.2-0.09c-0.15-0.33-0.31-0.65-0.47-0.98
	C5.77,15.88,17.69,15.87,17.92,15.9z"/>
<path class="st0" d="M15.67,19.55c-0.26,0-0.53,0-0.79,0c-0.11,0-0.14-0.03-0.14-0.14c0-0.5,0.01-1,0-1.5
	c0-0.13,0.05-0.15,0.16-0.15c0.52,0,1.04,0,1.56,0c0.13,0,0.17,0.06,0.16,0.18c0,0.48,0,0.96,0,1.44c0,0.13-0.05,0.19-0.18,0.18
	C16.19,19.54,15.93,19.55,15.67,19.55z"/>
<path class="st0" d="M7.74,19.55c-0.26,0-0.52-0.01-0.77,0c-0.11,0-0.15-0.03-0.15-0.15c0.01-0.49,0.01-0.99,0-1.48
	c0-0.14,0.05-0.16,0.17-0.16c0.5,0.01,1,0,1.5,0c0.13,0,0.18,0.04,0.18,0.18c-0.01,0.49-0.01,0.97,0,1.46
	c0,0.12-0.04,0.15-0.16,0.15C8.26,19.55,8,19.55,7.74,19.55z"/>
<path class="st0" d="M6.08,8.12C6,8.2,5.9,8.18,5.81,8.18c-0.68,0-1.37,0-2.05,0c-0.18,0-0.25-0.05-0.24-0.24
	c0.01-0.46,0.01-0.93,0-1.39c0-0.15,0.05-0.2,0.19-0.19c0.26,0.01,0.53,0.01,0.79,0c0.13,0,0.16,0.05,0.16,0.17
	C4.66,6.82,4.67,7.11,4.66,7.41C4.65,7.56,4.71,7.6,4.85,7.6C5.17,7.59,5.5,7.59,5.82,7.59c0.09,0,0.2-0.02,0.26,0.08
	C6.14,7.82,6.15,7.97,6.08,8.12z"/>
<path class="st0" d="M17.48,7.67c0.05-0.08,0.13-0.08,0.22-0.08c0.34,0,0.68-0.01,1.01,0c0.16,0,0.22-0.06,0.22-0.22
	c-0.01-0.28,0-0.57-0.01-0.85c0-0.12,0.03-0.17,0.16-0.17c0.26,0.01,0.53,0.01,0.79,0c0.13,0,0.17,0.05,0.17,0.17
	c0,0.49,0,0.99,0,1.48c0,0.13-0.05,0.17-0.17,0.17c-0.72-0.01-1.44-0.01-2.16-0.01c-0.09,0-0.17-0.02-0.23-0.1
	C17.41,7.94,17.4,7.81,17.48,7.67z"/>
<path class="st1" d="M6.08,8.12c0-0.15,0-0.3,0-0.45c0.03,0,0.06,0,0.09,0C6.19,7.84,6.15,8,6.22,8.16
	C6.17,8.15,6.12,8.13,6.08,8.12z"/>
<path class="st2" d="M17.48,7.67c0.01,0.13,0.02,0.27,0,0.4c-0.03,0-0.06,0-0.09,0c0-0.13-0.01-0.27-0.01-0.4
	C17.41,7.67,17.44,7.67,17.48,7.67z"/>
<path d="M11.76,9.65c-1.52,0-3.03,0-4.55,0c-0.19,0-0.23-0.06-0.23-0.24c0.01-1.5,0.01-3,0-4.5c0-0.19,0.03-0.26,0.24-0.26
	c3.04,0.01,6.07,0.01,9.11,0c0.2,0,0.25,0.06,0.25,0.25c-0.01,1.5-0.01,3,0,4.5c0,0.18-0.04,0.24-0.23,0.24
	C14.82,9.65,13.29,9.65,11.76,9.65z"/>
<path class="st3" d="M7.7,12.81c0.29,0,0.57,0,0.86,0c0.12,0,0.17,0.04,0.17,0.17c-0.01,0.37,0,0.75,0,1.12
	c0,0.11-0.04,0.15-0.14,0.15c-0.6,0-1.19,0-1.79,0c-0.1,0-0.14-0.04-0.14-0.15c0.01-0.37,0.01-0.75,0-1.12
	c0-0.13,0.05-0.17,0.17-0.17C7.13,12.81,7.42,12.81,7.7,12.81z"/>
<path d="M15.87,14.24c-0.29,0-0.57-0.01-0.86,0c-0.13,0-0.17-0.04-0.16-0.17c0.01-0.37,0.01-0.73,0-1.1c0-0.14,0.05-0.18,0.18-0.17
	c0.57,0.01,1.13,0.01,1.7,0c0.15,0,0.19,0.05,0.18,0.19c-0.01,0.36-0.01,0.72,0,1.08c0.01,0.15-0.05,0.17-0.18,0.17
	C16.44,14.24,16.16,14.24,15.87,14.24z"/>
<path class="st4" d="M11.8,13.01c-0.7,0-1.4-0.01-2.09,0c-0.16,0-0.22-0.03-0.22-0.21c0.02-0.43-0.07-0.4,0.39-0.4
	c1.34,0,2.69,0,4.03-0.01c0.18,0,0.22,0.06,0.22,0.23c-0.01,0.38,0,0.38-0.37,0.38C13.1,13.01,12.45,13.01,11.8,13.01z"/>
<path class="st3" d="M11.8,11.51c-0.7,0-1.4,0-2.09,0c-0.17,0-0.27-0.03-0.23-0.24c0.01-0.04,0.01-0.09,0-0.13
	C9.44,10.95,9.52,10.9,9.7,10.9c1.15,0.01,2.29,0,3.44,0c0.26,0,0.51,0,0.77,0c0.14,0,0.21,0.03,0.21,0.2
	c-0.01,0.41,0,0.41-0.4,0.41C13.07,11.51,12.44,11.51,11.8,11.51z"/>
<path class="st4" d="M11.8,14.51c-0.71,0-1.43,0-2.14,0c-0.1,0-0.15-0.02-0.15-0.13c0-0.01,0-0.01,0-0.02
	c0.01-0.52-0.08-0.44,0.4-0.44c1.33,0,2.66,0,3.99-0.01c0.18,0,0.23,0.05,0.22,0.23c-0.01,0.36,0,0.36-0.36,0.36
	C13.11,14.5,12.45,14.5,11.8,14.51C11.8,14.5,11.8,14.51,11.8,14.51z"/>
</svg>
